<svg xmlns="http://www.w3.org/2000/svg" viewBox="0 0 64 64" role="img" aria-label="鱼头大王">
  <path d="M10 33c8-14 23-21 42-20 1 19-8 33-27 41-5-6-10-13-15-21Z" fill="#136f63"/>
  <path d="M18 34c6-8 15-13 27-14-1 12-7 21-19 27-3-4-6-8-8-13Z" fill="#f7f8f5"/>
  <circle cx="39" cy="27" r="4" fill="#1d2521"/>
  <path d="M11 33 4 24v18l7-9Z" fill="#b7772a"/>
  <path d="M25 47c-5 4-10 5-16 3 4-4 8-7 13-10l3 7Z" fill="#415f72"/>
  <path d="M47 18c4-3 8-4 13-3-3 4-6 7-11 10l-2-7Z" fill="#415f72"/>
</svg>
